<?xml version="1.0" encoding="utf-8"?>
<!-- Generated by IcoMoon.io -->
<!DOCTYPE svg PUBLIC "-//W3C//DTD SVG 1.1//EN" "http://www.w3.org/Graphics/SVG/1.1/DTD/svg11.dtd">
<svg version="1.1" xmlns="http://www.w3.org/2000/svg" xmlns:xlink="http://www.w3.org/1999/xlink" width="512" height="512" viewBox="0 0 512 512"><g id="icomoon-ignore">
</g>
<path d="M64 160v-64c0-17.6 14.4-32 32-32h64c17.6 0 32 14.4 32 32v64c0 17.6-14.4 32-32 32h-64c-17.6 0-32-14.4-32-32z"></path>
<path d="M192 352v64c0 17.6-14.4 32-32 32h-64c-17.6 0-32-14.4-32-32v-64c0-17.6 14.4-32 32-32h64c17.6 0 32 14.4 32 32zM96 352v64h64v-64h-64z"></path>
<path d="M320 160v-64c0-17.6 14.4-32 32-32h64c17.6 0 32 14.4 32 32v64c0 17.6-14.4 32-32 32h-64c-17.6 0-32-14.4-32-32zM416 160v-64h-64v64h64z"></path>
<path d="M320 416v-64c0-17.6 14.4-32 32-32h64c17.6 0 32 14.4 32 32v64c0 17.6-14.4 32-32 32h-64c-17.6 0-32-14.4-32-32z"></path>
<path d="M256 448v-32c0-42.738-16.643-82.917-46.862-113.137-30.221-30.22-70.401-46.863-113.138-46.863h-32c-35.2 0-64-28.8-64-64v-128c0-35.2 28.8-64 64-64h128c35.2 0 64 28.8 64 64v32c0 42.738 16.643 82.917 46.862 113.137 30.221 30.22 70.401 46.863 113.138 46.863h32c35.2 0 64 28.8 64 64v128c0 35.2-28.8 64-64 64h-128c-35.2 0-64-28.8-64-64zM448 480c8.477 0 16.493-3.348 22.572-9.428s9.428-14.095 9.428-22.572v-128c0-8.477-3.348-16.493-9.428-22.572s-14.095-9.428-22.572-9.428h-32c-106.039 0-192-85.961-192-192v-32c0-8.477-3.348-16.493-9.427-22.573-6.080-6.079-14.096-9.427-22.573-9.427h-128c-8.477 0-16.493 3.348-22.573 9.427-6.079 6.080-9.427 14.096-9.427 22.573v128c0 8.477 3.348 16.493 9.427 22.573 6.080 6.079 14.096 9.427 22.573 9.427h32c106.039 0 192 85.961 192 192v32c0 8.477 3.348 16.493 9.428 22.572s14.095 9.428 22.572 9.428h128z"></path>
</svg>
